<?xml version="1.0" encoding="UTF-8" standalone="no" ?>
<!DOCTYPE svg PUBLIC "-//W3C//DTD SVG 1.1//EN" "http://www.w3.org/Graphics/SVG/1.1/DTD/svg11.dtd">
<svg xmlns="http://www.w3.org/2000/svg" xmlns:xlink="http://www.w3.org/1999/xlink" version="1.1" width="95.00000105857487" height="130" viewBox="295.7799989414251 208.56 95.00000105857487 130" xml:space="preserve">
<desc>Created with Fabric.js 4.6.0</desc>
<defs>
</defs>
<g transform="matrix(1 0 0 1 343.28 273.56)" id="FSUJTTXrrzpFcbbz9nBdf"  >
<path style="stroke: rgb(110,104,140); stroke-width: 0; stroke-dasharray: none; stroke-linecap: butt; stroke-dashoffset: 0; stroke-linejoin: miter; stroke-miterlimit: 4; fill: rgb(85,139,47); fill-rule: nonzero; opacity: 1;" vector-effect="non-scaling-stroke"  transform=" translate(-47.5, -65)" d="M 0 7.76841 C 0 5.7081 0.81846 3.73217 2.27531 2.2753200000000007 C 3.73217 0.8184600000000006 5.70809 0.000010000000000509601 7.7684 0.000010000000000509601 L 87.23158 0.000010000000000509601 L 87.23158 0.000010000000000509601 C 89.29189 0.000010000000000509601 91.26782 0.8184700000000005 92.72466999999999 2.2753200000000007 C 94.18153 3.7321800000000005 94.99998 5.708100000000001 94.99998 7.76841 L 94.99998 122.23159 L 94.99998 122.23159 C 94.99998 126.52195999999999 91.52194 130 87.23156999999999 130 L 7.768389999999997 130 L 7.768389999999997 130 C 3.4780199999999963 130 -0.000020000000003683738 126.52196 -0.000020000000003683738 122.23159 z" stroke-linecap="round" />
</g>
<g transform="matrix(1 0 0 1 343.28 273.56)" id="tYUNmRIgPXbZmXkI4kyo1"  >
<path style="stroke: rgb(110,104,140); stroke-width: 0; stroke-dasharray: none; stroke-linecap: butt; stroke-dashoffset: 0; stroke-linejoin: miter; stroke-miterlimit: 4; fill: rgb(220,237,200); fill-rule: nonzero; opacity: 1;" vector-effect="non-scaling-stroke"  transform=" translate(-37.5, -55)" d="M 0 7.04952 C 0 3.1561800000000004 3.15618 0 7.04952 0 L 67.95048 0 L 67.95048 0 C 71.84382 0 75 3.15618 75 7.04952 L 75 102.95048 L 75 102.95048 C 75 106.84382 71.84382 110 67.95048 110 L 7.049520000000001 110 L 7.049520000000001 110 C 3.1561800000000013 110 8.881784197001252e-16 106.84382 8.881784197001252e-16 102.95048 z" stroke-linecap="round" />
</g>
<g transform="matrix(0 1.15 -1.02 0 333.51 249.84)" id="DbPiURKNdmjOhMFat20Y3"  >
<path style="stroke: rgb(8,2,40); stroke-width: 0; stroke-dasharray: none; stroke-linecap: butt; stroke-dashoffset: 0; stroke-linejoin: miter; stroke-miterlimit: 4; fill: rgb(85,139,47); fill-rule: nonzero; opacity: 1;" vector-effect="non-scaling-stroke"  transform=" translate(0, 0)" d="M -4.34524 -32.63108 C -4.34524 -35.111259999999994 -2.5691900000000008 -37.12184 -0.37832000000000043 -37.12184 L 0.3783099999999996 -37.12184 L 0.3783099999999996 -37.12184 C 2.5691799999999994 -37.12184 4.34523 -35.11126 4.34523 -32.63108 L 4.34523 32.63107000000001 L 4.34523 32.63107000000001 C 4.34523 35.111250000000005 2.5691800000000002 37.12183000000001 0.3783099999999999 37.12183000000001 L -0.3783200000000001 37.12183000000001 L -0.3783200000000001 37.12183000000001 C -2.56919 37.12183000000001 -4.34524 35.11125000000001 -4.34524 32.63107000000001 z" stroke-linecap="round" />
</g>
<g transform="matrix(-1.15 0 0 -1.07 326.23 265.05)" id="n84ID_wza06AZEr5MLPVX"  >
<path style="stroke: rgb(110,104,140); stroke-width: 0; stroke-dasharray: none; stroke-linecap: butt; stroke-dashoffset: 0; stroke-linejoin: miter; stroke-miterlimit: 4; fill: rgb(85,139,47); fill-rule: nonzero; opacity: 1;" vector-effect="non-scaling-stroke"  transform=" translate(0, 0)" d="M -4.34524 -32.97927 C -4.34524 -35.26714 -2.6188400000000005 -37.12183 -0.48921000000000037 -37.12183 L 0.4892099999999996 -37.12183 L 0.4892099999999996 -37.12183 C 2.6188299999999995 -37.12183 4.3452399999999995 -35.267140000000005 4.3452399999999995 -32.97927 L 4.3452399999999995 32.97928 L 4.3452399999999995 32.97928 C 4.3452399999999995 35.26715 2.6188399999999996 37.121840000000006 0.4892099999999995 37.121840000000006 L -0.4892100000000005 37.121840000000006 L -0.4892100000000005 37.121840000000006 C -2.6188300000000004 37.121840000000006 -4.34524 35.26715000000001 -4.34524 32.97928 z" stroke-linecap="round" />
</g>
</svg>